# xmcd CD database file
#
# Track frame offsets:
#	150
#	16194
#	32574
#	49661
#	61367
#	80614
#	95004
#	116236
#	130560
#	146796
#	159880
#	179159
#	198931
#	215261
#	231581
#	254850
#	268959
#	287183
#
# Disc length: 4050 seconds
#
# Revision: 1
# Processed by: cddbd v1.5.2PL0 Copyright (c) Steve Scherf et al.
# Submitted via: CDex 1.79
#
DISCID=160fd012
DTITLE=Bob Marley and The Wailers - Rastaman Vibration (Remastered) (Deluxe Edition) (1 of 2)
DYEAR=2002
DGENRE=Reggae
TTITLE0=Positive Vibration
TTITLE1=Roots, Rock, Reggae
TTITLE2=Johnny Was
TTITLE3=Cry To Me
TTITLE4=Want More
TTITLE5=Crazy Baldhead
TTITLE6=Who The Cap Fit
TTITLE7=Night Shift
TTITLE8=War
TTITLE9=Rat Race
TTITLE10=Ja Live (Original Mix) (A-Side Of Signle Island Wip) (Additional Tracks)
TTITLE11=Concrete (B-Side Of Single Island WIP) (Additional Tracks)
TTITLE12=Roots, Rock, Reggae (Unrelased Single) (Additional Tracks)
TTITLE13=Roots, Rock, Dub (Unreleased Single Dub Mix) (Additional Tracks)
TTITLE14=Want More (Unrelased Alternative Album Mix) (Additional Tracks)
TTITLE15=Crazy Baldhead (Unrelased Alternative Album Mix) (Additional Tracks)
TTITLE16=War (Unrelased Alternative Album Mix) (Additional Tracks)
TTITLE17=Johnny Was (Unreleased Alternate Album Mix) (Additional Tracks)
EXTD=YEAR: 2002
EXTT0=
EXTT1=
EXTT2=
EXTT3=
EXTT4=
EXTT5=
EXTT6=
EXTT7=
EXTT8=
EXTT9=
EXTT10=
EXTT11=
EXTT12=
EXTT13=
EXTT14=
EXTT15=
EXTT16=
EXTT17=
PLAYORDER=
